<?xml version="1.0" standalone="no"?>
<!DOCTYPE svg PUBLIC "-//W3C//DTD SVG 20010904//EN"
 "http://www.w3.org/TR/2001/REC-SVG-20010904/DTD/svg10.dtd">
<svg version="1.0" xmlns="http://www.w3.org/2000/svg"
 width="2160.000000pt" height="2160.000000pt" viewBox="0 0 2160.000000 2160.000000"
 preserveAspectRatio="xMidYMid meet">
<metadata>
Created by potrace 1.11, written by Peter Selinger 2001-2013
</metadata>
<g transform="translate(0.000000,2160.000000) scale(0.100000,-0.100000)"
fill="#000000" stroke="none">
<path d="M0 10800 l0 -10800 10800 0 10800 0 0 10800 0 10800 -10800 0 -10800
0 0 -10800z m14190 4246 c0 -6 -318 -559 -646 -1124 -30 -50 -79 -135 -109
-187 -30 -52 -80 -138 -110 -190 -30 -52 -79 -137 -109 -188 -30 -50 -103
-177 -163 -282 -61 -104 -136 -235 -168 -290 -139 -239 -160 -275 -207 -360
-28 -49 -61 -106 -73 -125 -12 -19 -143 -244 -290 -500 -147 -256 -280 -485
-295 -510 -15 -25 -72 -121 -126 -215 -111 -194 -181 -314 -259 -450 -30 -52
-80 -138 -110 -190 -30 -52 -79 -137 -108 -187 -70 -122 -529 -915 -576 -995
-20 -35 -38 -63 -41 -63 -3 0 -21 28 -41 63 -38 64 -481 830 -574 992 -51 89
-114 198 -223 385 -85 147 -150 260 -256 445 -54 94 -111 190 -126 215 -15 25
-148 254 -295 510 -147 256 -278 481 -290 500 -12 19 -45 76 -73 125 -48 86
-72 128 -207 360 -32 55 -92 158 -132 229 -41 71 -107 184 -145 250 -39 67
-113 195 -166 286 -52 91 -109 190 -127 220 -42 71 -92 157 -386 665 -274 475
-349 606 -349 611 0 2 1526 4 3390 4 1865 0 3390 -2 3390 -4z m-7192 -2723
c27 -49 74 -132 105 -185 32 -54 82 -141 112 -193 76 -132 152 -263 217 -375
95 -165 758 -1311 813 -1405 64 -109 195 -335 342 -590 60 -104 136 -235 168
-290 32 -55 67 -116 77 -135 11 -19 44 -77 74 -127 30 -51 78 -135 108 -185
29 -51 78 -136 108 -188 31 -52 156 -268 278 -480 122 -212 247 -428 277 -480
31 -52 72 -124 93 -160 21 -36 70 -121 110 -190 77 -132 158 -272 220 -380 21
-36 79 -135 129 -221 50 -86 94 -164 97 -173 6 -15 -270 -16 -3385 -16 -1865
0 -3391 2 -3391 4 0 2 97 172 216 378 119 205 266 459 326 563 61 105 127 219
148 255 20 36 62 108 92 160 53 91 158 271 238 410 21 36 163 281 315 545 152
264 294 509 315 545 51 88 170 293 238 410 30 52 69 120 87 150 17 30 84 145
148 255 63 110 337 583 607 1050 271 468 529 914 574 992 44 78 84 142 88 143
3 0 28 -39 56 -87z m7708 14 c40 -72 1076 -1863 1164 -2012 25 -44 75 -129
110 -190 35 -60 86 -148 113 -195 27 -47 67 -114 87 -150 21 -36 70 -121 110
-190 40 -69 89 -154 110 -190 21 -36 163 -281 315 -545 153 -264 302 -523 332
-575 31 -52 80 -137 109 -188 137 -236 211 -363 352 -607 410 -708 542 -937
542 -941 0 -2 -1526 -4 -3391 -4 -3115 0 -3391 1 -3385 16 3 9 47 87 97 173
50 86 108 185 129 221 62 108 143 248 220 380 40 69 89 154 110 190 21 36 62
108 93 160 79 136 711 1228 734 1270 11 19 41 70 67 113 25 43 46 81 46 83 0
2 11 21 24 42 13 20 75 127 139 237 63 110 188 326 277 480 90 154 205 354
258 445 52 91 109 190 127 220 29 48 427 736 572 988 68 118 148 257 218 377
30 52 80 139 112 193 31 53 78 136 105 185 28 48 53 87 56 87 4 0 25 -33 48
-73z"/>
</g>
</svg>
