<?xml version="1.0" standalone="no"?>
<!DOCTYPE svg PUBLIC "-//W3C//DTD SVG 20010904//EN"
 "http://www.w3.org/TR/2001/REC-SVG-20010904/DTD/svg10.dtd">
<svg version="1.0" xmlns="http://www.w3.org/2000/svg"
 width="2500.000000pt" height="2500.000000pt" viewBox="0 0 2500.000000 2500.000000"
 preserveAspectRatio="xMidYMid meet">
<metadata>
Created by potrace 1.11, written by Peter Selinger 2001-2013
</metadata>
<g transform="translate(0.000000,2500.000000) scale(0.100000,-0.100000)"
fill="#000000" stroke="none">
<path d="M0 12500 l0 -12500 12500 0 12500 0 0 12500 0 12500 -12500 0 -12500
0 0 -12500z m10590 9270 c290 -20 515 -41 655 -61 511 -73 1275 -316 1790
-569 394 -193 890 -508 1154 -733 l33 -28 -145 -492 c-81 -271 -281 -958 -446
-1527 -522 -1806 -883 -3041 -1082 -3705 -217 -722 -388 -1235 -422 -1263 -14
-12 -40 3 -322 184 -499 320 -1033 577 -1595 769 -504 172 -870 245 -1490 297
-200 17 -894 17 -1090 0 -1003 -86 -1800 -292 -2679 -692 -388 -176 -436 -193
-427 -147 3 12 10 49 17 82 21 109 162 618 879 3175 450 1603 700 2497 869
3110 148 536 147 533 181 601 60 117 143 173 465 309 506 214 989 379 1440
493 343 87 515 118 985 178 l305 38 385 -4 c212 -2 455 -9 540 -15z m4508
-2055 c51 -29 175 -108 275 -174 504 -329 832 -501 1268 -665 558 -209 1138
-331 1839 -388 202 -16 934 -16 1140 0 821 66 1518 211 2315 483 209 71 389
140 836 319 l157 63 126 -114 c110 -99 126 -117 126 -144 0 -74 -66 -311 -490
-1765 -153 -525 -347 -1191 -430 -1480 -584 -2020 -930 -3200 -1027 -3496
l-48 -146 -165 -75 c-629 -284 -1002 -425 -1500 -568 -1085 -311 -2080 -414
-2995 -309 -454 51 -931 152 -1356 285 -630 197 -1095 419 -1649 788 -271 180
-389 268 -604 452 l-30 26 32 104 c46 147 404 1343 632 2109 308 1038 1403
4680 1421 4727 5 13 14 23 22 23 7 0 55 -25 105 -55z m-6943 -5976 c483 -26
792 -69 1274 -175 370 -82 998 -307 1376 -493 408 -200 952 -562 1073 -714 27
-33 32 -46 26 -71 -22 -109 -235 -853 -399 -1396 -197 -652 -305 -1015 -494
-1650 -188 -634 -492 -1644 -707 -2345 -122 -397 -367 -1163 -409 -1280 -40
-112 -82 -200 -102 -217 -21 -17 -107 28 -343 180 -725 465 -1401 752 -2180
926 -426 95 -762 125 -1370 126 -747 0 -1210 -56 -1885 -229 -496 -128 -877
-269 -1401 -519 -240 -115 -369 -170 -379 -160 -6 6 53 257 120 503 86 318
984 3535 1670 5980 142 507 158 548 236 627 52 51 130 92 404 208 675 287
1288 474 1970 599 241 45 703 104 885 115 90 5 418 -3 635 -15z m4540 -1752
c33 -19 101 -58 150 -89 132 -81 429 -239 765 -406 258 -129 360 -176 635
-297 44 -19 56 -28 45 -34 -8 -5 -153 -52 -322 -106 l-308 -97 -217 112 c-120
62 -291 155 -380 207 -157 91 -214 113 -241 95 -14 -10 -1992 -6447 -1992
-6485 0 -21 154 -165 265 -248 303 -227 760 -509 825 -509 62 0 225 356 383
837 145 439 240 624 448 863 197 226 271 357 323 570 40 163 59 209 120 278
25 30 46 57 46 60 0 4 -72 104 -160 222 -181 244 -220 312 -220 389 0 94 29
130 263 325 65 54 124 111 132 127 25 48 18 90 -34 196 -68 138 -115 268 -143
393 -33 149 -33 398 0 513 48 168 138 289 255 343 57 27 71 29 172 28 127 0
185 -18 278 -84 104 -75 235 -279 276 -431 11 -41 29 -138 40 -215 21 -146 32
-187 51 -199 6 -4 74 -11 152 -16 77 -5 176 -15 220 -24 44 -8 81 -15 83 -15
1 0 5 82 8 183 4 138 10 202 26 264 67 264 244 463 448 503 98 19 351 8 436
-19 160 -52 333 -292 357 -496 13 -114 13 -464 0 -575 -11 -98 -39 -163 -124
-285 l-56 -79 99 -101 c132 -135 134 -139 139 -310 5 -161 -5 -209 -50 -261
-24 -27 -92 -83 -156 -130 -2 -1 27 -33 65 -71 84 -83 146 -199 256 -478 151
-382 254 -725 356 -1185 29 -130 94 -284 189 -448 147 -253 240 -454 332 -717
60 -173 101 -263 130 -290 20 -18 23 -18 98 0 306 72 1156 424 1368 566 34 23
42 35 48 71 4 24 110 401 236 838 903 3138 1555 5427 1571 5515 16 94 14 97
-63 79 -86 -20 -290 -82 -559 -169 -497 -162 -894 -263 -1487 -379 -369 -73
-610 -96 -1227 -121 -209 -8 -383 -15 -386 -15 -9 0 -186 238 -248 334 -36 55
-48 83 -41 90 6 6 125 13 303 17 432 11 1042 75 1582 165 535 89 1282 299
1835 514 345 134 389 150 417 150 19 0 56 -21 113 -64 123 -92 282 -237 276
-251 -2 -7 -66 -230 -141 -496 -454 -1608 -1280 -4491 -1527 -5329 -194 -662
-344 -1135 -383 -1210 -71 -137 -1327 -618 -2155 -825 -387 -97 -613 -142
-825 -165 -564 -59 -1259 -65 -1750 -14 -1295 133 -2445 593 -3413 1365 -75
61 -177 147 -226 191 l-88 81 6 51 c10 74 65 278 149 551 863 2785 1497 4842
1777 5765 94 311 189 621 211 690 42 132 83 230 96 230 4 0 35 -15 68 -33z"/>
<path d="M13439 8831 c-57 -32 -135 -123 -148 -175 -29 -118 -5 -315 64 -525
39 -115 66 -168 90 -178 44 -16 392 271 415 343 22 67 -51 302 -133 426 -73
109 -199 157 -288 109z m64 -189 c15 -26 17 -35 7 -47 -16 -19 -43 -19 -79 0
-36 18 -43 37 -24 64 23 34 72 25 96 -17z"/>
<path d="M15102 8741 c-177 -62 -263 -253 -235 -524 l8 -77 159 -76 c184 -88
305 -134 348 -134 61 0 158 141 194 283 46 177 -63 441 -213 517 -64 33 -184
38 -261 11z m130 -119 c40 -35 28 -92 -19 -92 -38 0 -73 36 -73 76 0 18 6 34
13 37 18 7 60 -4 79 -21z"/>
</g>
</svg>
