<?xml version="1.0" standalone="no"?>
<!DOCTYPE svg PUBLIC "-//W3C//DTD SVG 20010904//EN"
 "http://www.w3.org/TR/2001/REC-SVG-20010904/DTD/svg10.dtd">
<svg version="1.0" xmlns="http://www.w3.org/2000/svg"
 width="1024.000000pt" height="1024.000000pt" viewBox="0 0 1024.000000 1024.000000"
 preserveAspectRatio="xMidYMid meet">
<metadata>
Created by potrace 1.11, written by Peter Selinger 2001-2013
</metadata>
<g transform="translate(0.000000,1024.000000) scale(0.100000,-0.100000)"
fill="#000000" stroke="none">
<path d="M4780 7743 c-339 -194 -350 -200 -570 -328 -74 -43 -160 -93 -190
-110 -142 -82 -336 -195 -440 -257 -63 -37 -137 -79 -165 -94 -27 -14 -60 -34
-75 -44 -14 -10 -168 -100 -342 -200 l-318 -182 -2 -586 c-2 -771 2 -1675 7
-1680 3 -4 87 42 226 124 36 21 105 62 152 89 l87 50 2 864 3 865 240 138
c132 76 263 151 290 166 28 16 136 78 240 139 105 60 282 163 395 228 328 190
634 361 739 415 77 39 45 50 351 -125 118 -67 294 -167 390 -222 96 -55 220
-126 275 -158 55 -32 114 -66 130 -75 17 -10 127 -74 245 -142 118 -69 229
-133 245 -142 17 -9 51 -29 76 -44 25 -15 105 -61 177 -102 l132 -75 0 -590 0
-591 -67 -39 c-38 -21 -99 -58 -138 -81 -113 -67 -247 -135 -254 -129 -3 4
-10 266 -16 583 l-10 576 -135 81 c-74 45 -169 100 -211 123 l-76 42 -529
-525 -529 -525 -195 197 c-107 109 -342 347 -522 529 l-328 332 -77 -45 c-43
-25 -139 -82 -213 -127 l-135 -81 -6 -75 c-4 -41 -7 -429 -8 -862 l-1 -787
-97 -57 c-348 -203 -792 -470 -811 -487 l-22 -21 47 -30 c27 -16 73 -44 103
-61 30 -18 127 -74 215 -125 389 -225 564 -326 625 -360 36 -20 142 -81 235
-135 94 -54 401 -230 682 -391 l513 -293 77 43 c74 41 418 238 783 448 91 52
226 130 300 173 74 42 160 92 190 110 30 18 75 44 100 58 25 13 99 56 165 94
212 123 389 225 425 246 19 10 82 46 140 80 58 33 140 80 182 104 68 39 77 48
80 76 5 56 -7 505 -14 512 -4 4 -105 -50 -225 -120 -120 -70 -247 -144 -283
-165 -36 -21 -146 -85 -245 -142 -99 -58 -254 -148 -345 -200 -313 -180 -356
-206 -680 -395 -416 -243 -608 -350 -642 -358 -31 -8 -50 2 -448 233 -421 244
-958 564 -992 592 -20 16 -19 18 48 61 38 25 138 86 222 135 l153 89 -5 495
c-5 491 2 990 13 990 11 0 85 -71 416 -399 182 -179 387 -382 457 -450 l127
-124 53 45 c29 25 253 245 498 489 l445 442 6 -199 c4 -109 7 -400 8 -645 0
-245 4 -487 7 -537 l7 -92 76 42 c62 34 221 125 506 288 17 10 199 115 405
235 206 120 387 225 402 234 l28 16 0 425 c0 234 -3 623 -7 865 l-6 440 -225
130 c-124 72 -255 147 -291 169 -107 62 -183 106 -441 256 -135 78 -270 156
-300 174 -263 154 -999 579 -1082 624 -42 23 -83 42 -90 42 -7 0 -159 -84
-338 -187z"/>
</g>
</svg>
